<svg id="Capa_1" enable-background="new 0 0 512 512" height="512" viewBox="0 0 512 512" width="512" xmlns="http://www.w3.org/2000/svg" xmlns:xlink="http://www.w3.org/1999/xlink"><linearGradient id="SVGID_1_" gradientUnits="userSpaceOnUse" x1="0" x2="512" y1="256" y2="256"><stop offset="0" stop-color="#9dd6fc"/><stop offset=".0056" stop-color="#9dd6fc"/><stop offset="1" stop-color="#d17ff7"/></linearGradient><path d="m452 16h-392c-33.084 0-60 26.916-60 60v360c0 33.084 26.916 60 60 60h392c33.084 0 60-26.916 60-60v-360c0-33.084-26.916-60-60-60zm-412 60c0-11.028 8.972-20 20-20h392c11.028 0 20 8.972 20 20v300h-432zm432 360c0 11.028-8.972 20-20 20h-392c-11.028 0-20-8.972-20-20v-20h432zm-236-280c0-33.084-26.916-60-60-60s-60 26.916-60 60 26.916 60 60 60 60-26.916 60-60zm-60 20c-11.028 0-20-8.972-20-20s8.972-20 20-20 20 8.972 20 20-8.972 20-20 20zm0 40c-55.141 0-100 44.86-100 100 0 11.046 8.954 20 20 20h160c11.046 0 20-8.954 20-20 0-55.14-44.859-100-100-100zm-56.573 80c8.255-23.281 30.498-40 56.573-40s48.318 16.719 56.573 40zm316.573-180c0 11.046-8.954 20-20 20h-120c-11.046 0-20-8.954-20-20s8.954-20 20-20h120c11.046 0 20 8.954 20 20zm0 80c0 11.046-8.954 20-20 20h-120c-11.046 0-20-8.954-20-20s8.954-20 20-20h120c11.046 0 20 8.954 20 20zm-80 80c0 11.046-8.954 20-20 20s-20-8.954-20-20 8.954-20 20-20 20 8.954 20 20zm80 0c0 11.046-8.954 20-20 20s-20-8.954-20-20 8.954-20 20-20 20 8.954 20 20z" fill="url(#SVGID_1_)"/></svg>