<svg xmlns="http://www.w3.org/2000/svg" viewBox="0 0 398.65 291.75"><defs><style>.cls-1,.cls-5{fill:#e6e6e6;}.cls-2{fill:#e0e0e0;}.cls-3{fill:#f0f0f0;}.cls-4{fill:#ebebeb;}.cls-10,.cls-13,.cls-14,.cls-15,.cls-16,.cls-17,.cls-18,.cls-19,.cls-20,.cls-25,.cls-5,.cls-9{isolation:isolate;}.cls-6{fill:#fafafa;}.cls-7{fill:#f5f5f5;}.cls-19,.cls-8{fill:#407bff;}.cls-11,.cls-13,.cls-14,.cls-16,.cls-18,.cls-24,.cls-9{fill:#fff;}.cls-25,.cls-9{opacity:0.3;}.cls-10,.cls-13,.cls-19{opacity:0.6;}.cls-12{fill:#263238;}.cls-14,.cls-17,.cls-20{opacity:0.4;}.cls-15,.cls-18,.cls-24{opacity:0.2;}.cls-16{opacity:0.5;}.cls-21{fill:#ebb376;}.cls-22{fill:none;stroke:#263238;stroke-miterlimit:10;stroke-width:0.5px;}.cls-23{fill:#e4897b;}</style></defs><title>programmer</title><g id="Background_Complete" data-name="Background Complete"><path class="cls-1" d="M112.11,374.92c-1.07,0-2.15,0-3.25-.08l.19-4c57.91,2.82,74.68-77,85.76-129.75,4.24-20.18,7.59-36.12,12.24-43C224,173.23,251.89,177,252.17,177l-.57,4h0c-1.09-.16-25.78-3.37-41.24,19.38-4.21,6.2-7.65,22.58-11.63,41.55C187.57,295.07,170.81,374.91,112.11,374.92Z" transform="translate(-50.73 -135.82)"/><path class="cls-1" d="M89.28,361.83l-.28-4c33.82-2.34,52.86-39.63,71.28-75.69,10.34-20.27,20.12-39.41,32.31-52.41,34.5-36.79,51.14-31.48,51.83-31.24l-1.33,3.78.67-1.89-.63,1.9c-.15-.05-15.34-4.24-47.62,30.19C183.7,245.06,174.05,264,163.84,284,144.92,321,125.35,359.33,89.28,361.83Z" transform="translate(-50.73 -135.82)"/><path class="cls-1" d="M109.16,369.43l-1.22-3.81c11.66-3.76,18.79-17.51,27.05-33.44,10.07-19.44,21.49-41.46,44.79-53.66,42.67-22.34,94.78,6.45,97,7.69l-2,3.48c-.52-.29-52.44-28.95-93.16-7.63-22.19,11.62-33.3,33.05-43.1,52C129.88,350.73,122.39,365.17,109.16,369.43Z" transform="translate(-50.73 -135.82)"/><path class="cls-1" d="M102.83,382.5l-.19-4c.57,0,57.05-3,87.72-31.56,32-29.84,71-19,71.39-18.9l-1.11,3.84c-.37-.1-37.21-10.27-67.55,18C161.33,379.44,105.21,382.39,102.83,382.5Z" transform="translate(-50.73 -135.82)"/><rect class="cls-2" y="207.38" width="52.01" height="39.69" rx="2.39"/><rect class="cls-3" x="20" y="207.38" width="52.01" height="39.69" rx="2.39"/><path class="cls-2" d="M100.3,375.49H93.17a.5.5,0,0,1-.5-.5.5.5,0,0,1,.5-.5h7.13a.5.5,0,0,1,.5.5A.5.5,0,0,1,100.3,375.49Z" transform="translate(-50.73 -135.82)"/><path class="cls-2" d="M105,372.84H88.43a.5.5,0,0,1-.5-.5.5.5,0,0,1,.5-.5H105a.5.5,0,0,1,.5.5A.5.5,0,0,1,105,372.84Z" transform="translate(-50.73 -135.82)"/><path class="cls-2" d="M107.29,370.18H86.19a.5.5,0,0,1-.5-.5.5.5,0,0,1,.5-.5h21.1a.5.5,0,0,1,.5.5A.5.5,0,0,1,107.29,370.18Z" transform="translate(-50.73 -135.82)"/><path class="cls-2" d="M108.55,367.53H84.92a.5.5,0,0,1-.5-.5.5.5,0,0,1,.5-.5h23.63a.5.5,0,0,1,.5.5A.5.5,0,0,1,108.55,367.53Z" transform="translate(-50.73 -135.82)"/><path class="cls-2" d="M109.13,364.87H84.34a.5.5,0,0,1-.5-.5.5.5,0,0,1,.5-.5h24.79a.5.5,0,0,1,.5.5A.5.5,0,0,1,109.13,364.87Z" transform="translate(-50.73 -135.82)"/><path class="cls-2" d="M109.13,362.22H84.34a.5.5,0,0,1-.5-.5.5.5,0,0,1,.5-.5h24.79a.5.5,0,0,1,.5.5A.5.5,0,0,1,109.13,362.22Z" transform="translate(-50.73 -135.82)"/><path class="cls-2" d="M108.55,359.56H84.93a.5.5,0,0,1-.5-.5.5.5,0,0,1,.5-.5h23.62a.5.5,0,0,1,.5.5A.5.5,0,0,1,108.55,359.56Z" transform="translate(-50.73 -135.82)"/><path class="cls-2" d="M107.29,356.91H86.19a.5.5,0,0,1-.5-.5.5.5,0,0,1,.5-.5h21.1a.5.5,0,0,1,.5.5A.5.5,0,0,1,107.29,356.91Z" transform="translate(-50.73 -135.82)"/><path class="cls-2" d="M105,354.25H88.43a.5.5,0,0,1-.5-.5.5.5,0,0,1,.5-.5H105a.5.5,0,0,1,.5.5A.5.5,0,0,1,105,354.25Z" transform="translate(-50.73 -135.82)"/><path class="cls-2" d="M100.3,351.6H93.17a.5.5,0,0,1-.5-.5.5.5,0,0,1,.5-.5h7.13a.5.5,0,0,1,.5.5A.5.5,0,0,1,100.3,351.6Z" transform="translate(-50.73 -135.82)"/><rect class="cls-2" x="80" y="207.38" width="52.01" height="39.69" rx="2.39"/><rect class="cls-3" x="100" y="207.38" width="52.01" height="39.69" rx="2.39"/><path class="cls-2" d="M180.3,375.49h-7.13a.5.5,0,0,1-.5-.5.5.5,0,0,1,.5-.5h7.13a.5.5,0,0,1,.5.5A.5.5,0,0,1,180.3,375.49Z" transform="translate(-50.73 -135.82)"/><path class="cls-2" d="M185,372.84H168.43a.5.5,0,0,1-.5-.5.5.5,0,0,1,.5-.5H185a.5.5,0,0,1,.5.5A.5.5,0,0,1,185,372.84Z" transform="translate(-50.73 -135.82)"/><path class="cls-2" d="M187.29,370.18h-21.1a.5.5,0,0,1-.5-.5.5.5,0,0,1,.5-.5h21.1a.5.5,0,0,1,.5.5A.5.5,0,0,1,187.29,370.18Z" transform="translate(-50.73 -135.82)"/><path class="cls-2" d="M188.55,367.53H164.92a.5.5,0,0,1-.5-.5.5.5,0,0,1,.5-.5h23.63a.5.5,0,0,1,.5.5A.5.5,0,0,1,188.55,367.53Z" transform="translate(-50.73 -135.82)"/><path class="cls-2" d="M189.13,364.87H164.34a.5.5,0,0,1-.5-.5.5.5,0,0,1,.5-.5h24.79a.5.5,0,0,1,.5.5A.5.5,0,0,1,189.13,364.87Z" transform="translate(-50.73 -135.82)"/><path class="cls-2" d="M189.13,362.22H164.34a.5.5,0,0,1-.5-.5.5.5,0,0,1,.5-.5h24.79a.5.5,0,0,1,.5.5A.5.5,0,0,1,189.13,362.22Z" transform="translate(-50.73 -135.82)"/><path class="cls-2" d="M188.55,359.56H164.93a.5.5,0,0,1-.5-.5.5.5,0,0,1,.5-.5h23.62a.5.5,0,0,1,.5.5A.5.5,0,0,1,188.55,359.56Z" transform="translate(-50.73 -135.82)"/><path class="cls-2" d="M187.29,356.91h-21.1a.5.5,0,0,1-.5-.5.5.5,0,0,1,.5-.5h21.1a.5.5,0,0,1,.5.5A.5.5,0,0,1,187.29,356.91Z" transform="translate(-50.73 -135.82)"/><path class="cls-2" d="M185,354.25H168.43a.5.5,0,0,1-.5-.5.5.5,0,0,1,.5-.5H185a.5.5,0,0,1,.5.5A.5.5,0,0,1,185,354.25Z" transform="translate(-50.73 -135.82)"/><path class="cls-2" d="M180.3,351.6h-7.13a.5.5,0,0,1-.5-.5.5.5,0,0,1,.5-.5h7.13a.5.5,0,0,1,.5.5A.5.5,0,0,1,180.3,351.6Z" transform="translate(-50.73 -135.82)"/><rect class="cls-2" x="215.04" width="183.61" height="246.59"/><rect class="cls-4" x="180.09" width="183.61" height="246.59"/><rect class="cls-2" x="183.93" y="3.18" width="176.23" height="243.41"/><rect class="cls-3" x="205.01" y="227.29" width="42.3" height="12.42" rx="1.65"/><rect class="cls-5" x="205.01" y="227.29" width="42.3" height="12.42" rx="1.65"/><rect class="cls-3" x="190.61" y="227.29" width="42.3" height="12.42" rx="1.65"/><path class="cls-6" d="M279.46,369.31a2.61,2.61,0,1,1-2.61-2.61A2.61,2.61,0,0,1,279.46,369.31Z" transform="translate(-50.73 -135.82)"/><circle class="cls-3" cx="226.12" cy="233.5" r="1.33"/><rect class="cls-6" x="217.56" y="232.01" width="2.97" height="2.97"/><rect class="cls-3" x="205.01" y="213.73" width="42.3" height="12.42" rx="1.65"/><rect class="cls-5" x="205.01" y="213.73" width="42.3" height="12.42" rx="1.65"/><rect class="cls-3" x="190.61" y="213.73" width="42.3" height="12.42" rx="1.65"/><circle class="cls-6" cx="226.12" cy="219.94" r="2.61"/><circle class="cls-3" cx="226.12" cy="219.94" r="1.33"/><rect class="cls-6" x="217.56" y="218.45" width="2.97" height="2.97"/><rect class="cls-3" x="205.01" y="200.17" width="42.3" height="12.42" rx="1.65"/><rect class="cls-5" x="205.01" y="200.17" width="42.3" height="12.42" rx="1.65"/><rect class="cls-3" x="190.61" y="200.17" width="42.3" height="12.42" rx="1.65"/><path class="cls-6" d="M279.46,342.19a2.61,2.61,0,1,1-2.61-2.61A2.61,2.61,0,0,1,279.46,342.19Z" transform="translate(-50.73 -135.82)"/><path class="cls-3" d="M278.18,342.19a1.33,1.33,0,1,1-1.33-1.32A1.32,1.32,0,0,1,278.18,342.19Z" transform="translate(-50.73 -135.82)"/><rect class="cls-6" x="217.56" y="204.89" width="2.97" height="2.97"/><rect class="cls-3" x="205.01" y="186.61" width="42.3" height="12.42" rx="1.65"/><rect class="cls-5" x="205.01" y="186.61" width="42.3" height="12.42" rx="1.65"/><rect class="cls-3" x="190.61" y="186.61" width="42.3" height="12.42" rx="1.65"/><circle class="cls-6" cx="226.12" cy="192.82" r="2.61"/><circle class="cls-3" cx="226.12" cy="192.82" r="1.33"/><rect class="cls-6" x="217.56" y="191.33" width="2.97" height="2.97"/><rect class="cls-3" x="205.1" y="173.05" width="42.3" height="12.42" rx="1.65"/><rect class="cls-5" x="205.1" y="173.05" width="42.3" height="12.42" rx="1.65"/><rect class="cls-3" x="190.69" y="173.05" width="42.3" height="12.42" rx="1.65"/><circle class="cls-6" cx="226.21" cy="179.26" r="2.61"/><circle class="cls-3" cx="226.21" cy="179.26" r="1.33"/><rect class="cls-6" x="217.65" y="177.77" width="2.97" height="2.97"/><rect class="cls-3" x="205.19" y="159.49" width="42.3" height="12.42" rx="1.65"/><rect class="cls-5" x="205.19" y="159.49" width="42.3" height="12.42" rx="1.65"/><rect class="cls-3" x="190.78" y="159.49" width="42.3" height="12.42" rx="1.65"/><path class="cls-6" d="M279.63,301.51A2.61,2.61,0,1,1,277,298.9,2.61,2.61,0,0,1,279.63,301.51Z" transform="translate(-50.73 -135.82)"/><circle class="cls-3" cx="226.29" cy="165.7" r="1.33"/><rect class="cls-6" x="217.73" y="164.21" width="2.97" height="2.97"/><rect class="cls-3" x="205.27" y="145.93" width="42.3" height="12.42" rx="1.65"/><rect class="cls-5" x="205.27" y="145.93" width="42.3" height="12.42" rx="1.65"/><rect class="cls-3" x="190.86" y="145.93" width="42.3" height="12.42" rx="1.65"/><path class="cls-6" d="M279.72,288a2.61,2.61,0,1,1-2.61-2.61A2.61,2.61,0,0,1,279.72,288Z" transform="translate(-50.73 -135.82)"/><circle class="cls-3" cx="226.38" cy="152.13" r="1.33"/><rect class="cls-6" x="217.82" y="150.65" width="2.97" height="2.97"/><rect class="cls-3" x="205.36" y="132.36" width="42.3" height="12.42" rx="1.65"/><rect class="cls-5" x="205.36" y="132.36" width="42.3" height="12.42" rx="1.65"/><rect class="cls-3" x="190.95" y="132.36" width="42.3" height="12.42" rx="1.65"/><path class="cls-6" d="M279.8,274.39a2.61,2.61,0,1,1-2.61-2.61A2.61,2.61,0,0,1,279.8,274.39Z" transform="translate(-50.73 -135.82)"/><path class="cls-3" d="M278.52,274.39a1.33,1.33,0,1,1-1.33-1.33A1.33,1.33,0,0,1,278.52,274.39Z" transform="translate(-50.73 -135.82)"/><rect class="cls-6" x="217.9" y="137.09" width="2.97" height="2.97"/><rect class="cls-3" x="205.44" y="118.8" width="42.3" height="12.42" rx="1.65"/><rect class="cls-5" x="205.44" y="118.8" width="42.3" height="12.42" rx="1.65"/><rect class="cls-3" x="191.03" y="118.8" width="42.3" height="12.42" rx="1.65"/><circle class="cls-6" cx="226.55" cy="125.01" r="2.61"/><path class="cls-3" d="M278.61,260.83a1.33,1.33,0,1,1-1.33-1.33A1.34,1.34,0,0,1,278.61,260.83Z" transform="translate(-50.73 -135.82)"/><rect class="cls-6" x="217.99" y="123.53" width="2.97" height="2.97"/><rect class="cls-3" x="205.53" y="105.24" width="42.3" height="12.42" rx="1.65"/><rect class="cls-5" x="205.53" y="105.24" width="42.3" height="12.42" rx="1.65"/><rect class="cls-3" x="191.12" y="105.24" width="42.3" height="12.42" rx="1.65"/><circle class="cls-6" cx="226.63" cy="111.45" r="2.61"/><circle class="cls-3" cx="226.63" cy="111.45" r="1.33"/><rect class="cls-6" x="218.07" y="109.97" width="2.97" height="2.97"/><rect class="cls-3" x="205.61" y="91.68" width="42.3" height="12.42" rx="1.65"/><rect class="cls-5" x="205.61" y="91.68" width="42.3" height="12.42" rx="1.65"/><rect class="cls-3" x="191.2" y="91.68" width="42.3" height="12.42" rx="1.65"/><circle class="cls-6" cx="226.72" cy="97.89" r="2.61"/><circle class="cls-3" cx="226.72" cy="97.89" r="1.33"/><rect class="cls-6" x="218.16" y="96.41" width="2.97" height="2.97"/><rect class="cls-3" x="205.7" y="78.12" width="42.3" height="12.42" rx="1.65"/><rect class="cls-5" x="205.7" y="78.12" width="42.3" height="12.42" rx="1.65"/><rect class="cls-3" x="191.29" y="78.12" width="42.3" height="12.42" rx="1.65"/><path class="cls-6" d="M280.15,220.15a2.61,2.61,0,1,1-2.61-2.61A2.61,2.61,0,0,1,280.15,220.15Z" transform="translate(-50.73 -135.82)"/><circle class="cls-3" cx="226.8" cy="84.33" r="1.33"/><rect class="cls-6" x="218.24" y="82.85" width="2.97" height="2.97"/><rect class="cls-3" x="205.78" y="64.56" width="42.3" height="12.42" rx="1.65"/><rect class="cls-5" x="205.78" y="64.56" width="42.3" height="12.42" rx="1.65"/><rect class="cls-3" x="191.38" y="64.56" width="42.3" height="12.42" rx="1.65"/><path class="cls-6" d="M280.23,206.59a2.61,2.61,0,1,1-2.61-2.61A2.61,2.61,0,0,1,280.23,206.59Z" transform="translate(-50.73 -135.82)"/><circle class="cls-3" cx="226.89" cy="70.77" r="1.33"/><rect class="cls-6" x="218.33" y="69.29" width="2.97" height="2.97"/><rect class="cls-3" x="205.87" y="51" width="42.3" height="12.42" rx="1.65"/><rect class="cls-5" x="205.87" y="51" width="42.3" height="12.42" rx="1.65"/><rect class="cls-3" x="191.46" y="51" width="42.3" height="12.42" rx="1.65"/><path class="cls-6" d="M280.32,193a2.61,2.61,0,1,1-2.61-2.61A2.61,2.61,0,0,1,280.32,193Z" transform="translate(-50.73 -135.82)"/><path class="cls-3" d="M279,193a1.33,1.33,0,1,1-1.32-1.33A1.33,1.33,0,0,1,279,193Z" transform="translate(-50.73 -135.82)"/><rect class="cls-6" x="218.41" y="55.73" width="2.97" height="2.97"/><rect class="cls-3" x="205.95" y="37.44" width="42.3" height="12.42" rx="1.65"/><rect class="cls-5" x="205.95" y="37.44" width="42.3" height="12.42" rx="1.65"/><rect class="cls-3" x="191.55" y="37.44" width="42.3" height="12.42" rx="1.65"/><circle class="cls-6" cx="227.06" cy="43.65" r="2.61"/><path class="cls-3" d="M279.12,179.47a1.33,1.33,0,1,1-1.33-1.33A1.33,1.33,0,0,1,279.12,179.47Z" transform="translate(-50.73 -135.82)"/><rect class="cls-6" x="218.5" y="42.17" width="2.97" height="2.97"/><rect class="cls-3" x="206.04" y="23.88" width="42.3" height="12.42" rx="1.65"/><rect class="cls-5" x="206.04" y="23.88" width="42.3" height="12.42" rx="1.65"/><rect class="cls-3" x="191.63" y="23.88" width="42.3" height="12.42" rx="1.65"/><circle class="cls-6" cx="227.15" cy="30.09" r="2.61"/><path class="cls-3" d="M279.21,165.91a1.33,1.33,0,1,1-1.33-1.33A1.33,1.33,0,0,1,279.21,165.91Z" transform="translate(-50.73 -135.82)"/><rect class="cls-6" x="218.58" y="28.61" width="2.97" height="2.97"/><rect class="cls-3" x="206.13" y="10.32" width="42.3" height="12.42" rx="1.65"/><rect class="cls-5" x="206.13" y="10.32" width="42.3" height="12.42" rx="1.65"/><rect class="cls-3" x="191.72" y="10.32" width="42.3" height="12.42" rx="1.65"/><circle class="cls-6" cx="227.23" cy="16.53" r="2.61"/><circle class="cls-3" cx="227.23" cy="16.53" r="1.33"/><rect class="cls-6" x="218.67" y="15.05" width="2.97" height="2.97"/><rect class="cls-3" x="257.44" y="227.29" width="42.3" height="12.42" rx="1.65"/><rect class="cls-5" x="257.44" y="227.29" width="42.3" height="12.42" rx="1.65"/><rect class="cls-3" x="243.04" y="227.29" width="42.3" height="12.42" rx="1.65"/><path class="cls-6" d="M331.89,369.31a2.61,2.61,0,1,1-2.61-2.61A2.61,2.61,0,0,1,331.89,369.31Z" transform="translate(-50.73 -135.82)"/><path class="cls-3" d="M330.61,369.31a1.33,1.33,0,1,1-1.33-1.32A1.33,1.33,0,0,1,330.61,369.31Z" transform="translate(-50.73 -135.82)"/><rect class="cls-6" x="269.99" y="232.01" width="2.97" height="2.97"/><rect class="cls-3" x="257.44" y="213.73" width="42.3" height="12.42" rx="1.65"/><rect class="cls-5" x="257.44" y="213.73" width="42.3" height="12.42" rx="1.65"/><rect class="cls-3" x="243.04" y="213.73" width="42.3" height="12.42" rx="1.65"/><circle class="cls-6" cx="278.55" cy="219.94" r="2.61"/><path class="cls-3" d="M330.61,355.75a1.33,1.33,0,1,1-1.33-1.32A1.33,1.33,0,0,1,330.61,355.75Z" transform="translate(-50.73 -135.82)"/><rect class="cls-6" x="269.99" y="218.45" width="2.97" height="2.97"/><rect class="cls-3" x="257.44" y="200.17" width="42.3" height="12.42" rx="1.65"/><rect class="cls-5" x="257.44" y="200.17" width="42.3" height="12.42" rx="1.65"/><rect class="cls-3" x="243.04" y="200.17" width="42.3" height="12.42" rx="1.65"/><path class="cls-6" d="M331.89,342.19a2.61,2.61,0,1,1-2.61-2.61A2.61,2.61,0,0,1,331.89,342.19Z" transform="translate(-50.73 -135.82)"/><path class="cls-3" d="M330.61,342.19a1.33,1.33,0,1,1-1.33-1.32A1.33,1.33,0,0,1,330.61,342.19Z" transform="translate(-50.73 -135.82)"/><rect class="cls-6" x="269.99" y="204.89" width="2.97" height="2.97"/><rect class="cls-3" x="257.44" y="186.61" width="42.3" height="12.42" rx="1.65"/><rect class="cls-5" x="257.44" y="186.61" width="42.3" height="12.42" rx="1.65"/><rect class="cls-3" x="243.04" y="186.61" width="42.3" height="12.42" rx="1.65"/><circle class="cls-6" cx="278.55" cy="192.82" r="2.61"/><path class="cls-3" d="M330.61,328.63a1.33,1.33,0,1,1-1.33-1.33A1.33,1.33,0,0,1,330.61,328.63Z" transform="translate(-50.73 -135.82)"/><rect class="cls-6" x="269.99" y="191.33" width="2.97" height="2.97"/><rect class="cls-3" x="257.53" y="173.05" width="42.3" height="12.42" rx="1.65"/><rect class="cls-5" x="257.53" y="173.05" width="42.3" height="12.42" rx="1.65"/><rect class="cls-3" x="243.12" y="173.05" width="42.3" height="12.42" rx="1.65"/><circle class="cls-6" cx="278.64" cy="179.26" r="2.61"/><circle class="cls-3" cx="278.64" cy="179.26" r="1.33"/><rect class="cls-6" x="270.07" y="177.77" width="2.97" height="2.97"/><rect class="cls-3" x="257.61" y="159.49" width="42.3" height="12.42" rx="1.65"/><rect class="cls-5" x="257.61" y="159.49" width="42.3" height="12.42" rx="1.65"/><rect class="cls-3" x="243.21" y="159.49" width="42.3" height="12.42" rx="1.65"/><circle class="cls-6" cx="278.72" cy="165.7" r="2.61"/><circle class="cls-3" cx="278.72" cy="165.7" r="1.33"/><rect class="cls-6" x="270.16" y="164.21" width="2.97" height="2.97"/><rect class="cls-3" x="257.7" y="145.93" width="42.3" height="12.42" rx="1.65"/><rect class="cls-5" x="257.7" y="145.93" width="42.3" height="12.42" rx="1.65"/><rect class="cls-3" x="243.29" y="145.93" width="42.3" height="12.42" rx="1.65"/><path class="cls-6" d="M332.15,288a2.61,2.61,0,1,1-2.61-2.61A2.61,2.61,0,0,1,332.15,288Z" transform="translate(-50.73 -135.82)"/><circle class="cls-3" cx="278.81" cy="152.13" r="1.33"/><rect class="cls-6" x="270.25" y="150.65" width="2.97" height="2.97"/><rect class="cls-3" x="257.79" y="132.36" width="42.3" height="12.42" rx="1.65"/><rect class="cls-5" x="257.79" y="132.36" width="42.3" height="12.42" rx="1.65"/><rect class="cls-3" x="243.38" y="132.36" width="42.3" height="12.42" rx="1.65"/><path class="cls-6" d="M332.23,274.39a2.61,2.61,0,1,1-2.61-2.61A2.61,2.61,0,0,1,332.23,274.39Z" transform="translate(-50.73 -135.82)"/><circle class="cls-3" cx="278.89" cy="138.57" r="1.33"/><rect class="cls-6" x="270.33" y="137.09" width="2.97" height="2.97"/><rect class="cls-3" x="257.87" y="118.8" width="42.3" height="12.42" rx="1.65"/><rect class="cls-5" x="257.87" y="118.8" width="42.3" height="12.42" rx="1.65"/><rect class="cls-3" x="243.46" y="118.8" width="42.3" height="12.42" rx="1.65"/><path class="cls-6" d="M332.32,260.83a2.61,2.61,0,1,1-2.61-2.61A2.61,2.61,0,0,1,332.32,260.83Z" transform="translate(-50.73 -135.82)"/><path class="cls-3" d="M331,260.83a1.33,1.33,0,1,1-1.33-1.33A1.34,1.34,0,0,1,331,260.83Z" transform="translate(-50.73 -135.82)"/><rect class="cls-6" x="270.42" y="123.53" width="2.97" height="2.97"/><rect class="cls-3" x="257.96" y="105.24" width="42.3" height="12.42" rx="1.65"/><rect class="cls-5" x="257.96" y="105.24" width="42.3" height="12.42" rx="1.65"/><rect class="cls-3" x="243.55" y="105.24" width="42.3" height="12.42" rx="1.65"/><circle class="cls-6" cx="279.06" cy="111.45" r="2.61"/><path class="cls-3" d="M331.12,247.27a1.33,1.33,0,1,1-1.33-1.33A1.33,1.33,0,0,1,331.12,247.27Z" transform="translate(-50.73 -135.82)"/><rect class="cls-6" x="270.5" y="109.97" width="2.97" height="2.97"/><rect class="cls-3" x="258.04" y="91.68" width="42.3" height="12.42" rx="1.65"/><rect class="cls-5" x="258.04" y="91.68" width="42.3" height="12.42" rx="1.65"/><rect class="cls-3" x="243.63" y="91.68" width="42.3" height="12.42" rx="1.65"/><circle class="cls-6" cx="279.15" cy="97.89" r="2.61"/><circle class="cls-3" cx="279.15" cy="97.89" r="1.33"/><rect class="cls-6" x="270.59" y="96.41" width="2.97" height="2.97"/><rect class="cls-3" x="258.13" y="78.12" width="42.3" height="12.42" rx="1.65"/><rect class="cls-5" x="258.13" y="78.12" width="42.3" height="12.42" rx="1.65"/><rect class="cls-3" x="243.72" y="78.12" width="42.3" height="12.42" rx="1.65"/><circle class="cls-6" cx="279.23" cy="84.33" r="2.61"/><circle class="cls-3" cx="279.23" cy="84.33" r="1.33"/><rect class="cls-6" x="270.67" y="82.85" width="2.97" height="2.97"/><rect class="cls-3" x="258.21" y="64.56" width="42.3" height="12.42" rx="1.65"/><rect class="cls-5" x="258.21" y="64.56" width="42.3" height="12.42" rx="1.65"/><rect class="cls-3" x="243.81" y="64.56" width="42.3" height="12.42" rx="1.65"/><path class="cls-6" d="M332.66,206.59a2.61,2.61,0,1,1-2.61-2.61A2.61,2.61,0,0,1,332.66,206.59Z" transform="translate(-50.73 -135.82)"/><circle class="cls-3" cx="279.32" cy="70.77" r="1.33"/><rect class="cls-6" x="270.76" y="69.29" width="2.97" height="2.97"/><rect class="cls-3" x="258.3" y="51" width="42.3" height="12.42" rx="1.65"/><rect class="cls-5" x="258.3" y="51" width="42.3" height="12.42" rx="1.65"/><rect class="cls-3" x="243.89" y="51" width="42.3" height="12.42" rx="1.65"/><path class="cls-6" d="M332.75,193a2.61,2.61,0,1,1-2.61-2.61A2.61,2.61,0,0,1,332.75,193Z" transform="translate(-50.73 -135.82)"/><circle class="cls-3" cx="279.4" cy="57.21" r="1.33"/><rect class="cls-6" x="270.84" y="55.73" width="2.97" height="2.97"/><rect class="cls-3" x="258.38" y="37.44" width="42.3" height="12.42" rx="1.65"/><rect class="cls-5" x="258.38" y="37.44" width="42.3" height="12.42" rx="1.65"/><rect class="cls-3" x="243.98" y="37.44" width="42.3" height="12.42" rx="1.65"/><path class="cls-6" d="M332.83,179.47a2.61,2.61,0,1,1-2.61-2.61A2.61,2.61,0,0,1,332.83,179.47Z" transform="translate(-50.73 -135.82)"/><path class="cls-3" d="M331.55,179.47a1.33,1.33,0,1,1-1.33-1.33A1.34,1.34,0,0,1,331.55,179.47Z" transform="translate(-50.73 -135.82)"/><rect class="cls-6" x="270.93" y="42.17" width="2.97" height="2.97"/><rect class="cls-3" x="258.47" y="23.88" width="42.3" height="12.42" rx="1.65"/><rect class="cls-5" x="258.47" y="23.88" width="42.3" height="12.42" rx="1.65"/><rect class="cls-3" x="244.06" y="23.88" width="42.3" height="12.42" rx="1.65"/><path class="cls-6" d="M332.92,165.91a2.61,2.61,0,1,1-2.61-2.61A2.61,2.61,0,0,1,332.92,165.91Z" transform="translate(-50.73 -135.82)"/><path class="cls-3" d="M331.63,165.91a1.33,1.33,0,1,1-1.32-1.33A1.32,1.32,0,0,1,331.63,165.91Z" transform="translate(-50.73 -135.82)"/><rect class="cls-6" x="271.01" y="28.61" width="2.97" height="2.97"/><rect class="cls-3" x="258.55" y="10.32" width="42.3" height="12.42" rx="1.65"/><rect class="cls-5" x="258.55" y="10.32" width="42.3" height="12.42" rx="1.65"/><rect class="cls-3" x="244.15" y="10.32" width="42.3" height="12.42" rx="1.65"/><circle class="cls-6" cx="279.66" cy="16.53" r="2.61"/><path class="cls-3" d="M331.72,152.35a1.33,1.33,0,1,1-1.33-1.33A1.32,1.32,0,0,1,331.72,152.35Z" transform="translate(-50.73 -135.82)"/><rect class="cls-6" x="271.1" y="15.05" width="2.97" height="2.97"/><rect class="cls-3" x="309.87" y="227.29" width="42.3" height="12.42" rx="1.65"/><rect class="cls-5" x="309.87" y="227.29" width="42.3" height="12.42" rx="1.65"/><rect class="cls-3" x="295.47" y="227.29" width="42.3" height="12.42" rx="1.65"/><path class="cls-6" d="M384.32,369.31a2.61,2.61,0,1,1-2.61-2.61A2.61,2.61,0,0,1,384.32,369.31Z" transform="translate(-50.73 -135.82)"/><path class="cls-3" d="M383,369.31a1.33,1.33,0,1,1-1.33-1.32A1.33,1.33,0,0,1,383,369.31Z" transform="translate(-50.73 -135.82)"/><rect class="cls-6" x="322.42" y="232.01" width="2.97" height="2.97"/><rect class="cls-3" x="309.87" y="213.73" width="42.3" height="12.42" rx="1.65"/><rect class="cls-5" x="309.87" y="213.73" width="42.3" height="12.42" rx="1.65"/><rect class="cls-3" x="295.47" y="213.73" width="42.3" height="12.42" rx="1.65"/><path class="cls-6" d="M384.32,355.75a2.61,2.61,0,1,1-2.61-2.61A2.61,2.61,0,0,1,384.32,355.75Z" transform="translate(-50.73 -135.82)"/><path class="cls-3" d="M383,355.75a1.33,1.33,0,1,1-1.33-1.32A1.33,1.33,0,0,1,383,355.75Z" transform="translate(-50.73 -135.82)"/><rect class="cls-6" x="322.42" y="218.45" width="2.97" height="2.97"/><rect class="cls-3" x="309.87" y="200.17" width="42.3" height="12.42" rx="1.65"/><rect class="cls-5" x="309.87" y="200.17" width="42.3" height="12.42" rx="1.65"/><rect class="cls-3" x="295.47" y="200.17" width="42.3" height="12.42" rx="1.65"/><path class="cls-6" d="M384.32,342.19a2.61,2.61,0,1,1-2.61-2.61A2.61,2.61,0,0,1,384.32,342.19Z" transform="translate(-50.73 -135.82)"/><path class="cls-3" d="M383,342.19a1.33,1.33,0,1,1-1.33-1.32A1.33,1.33,0,0,1,383,342.19Z" transform="translate(-50.73 -135.82)"/><rect class="cls-6" x="322.42" y="204.89" width="2.97" height="2.97"/><rect class="cls-3" x="309.87" y="186.61" width="42.3" height="12.42" rx="1.65"/><rect class="cls-5" x="309.87" y="186.61" width="42.3" height="12.42" rx="1.65"/><rect class="cls-3" x="295.47" y="186.61" width="42.3" height="12.42" rx="1.65"/><path class="cls-6" d="M384.32,328.63a2.61,2.61,0,1,1-2.61-2.61A2.61,2.61,0,0,1,384.32,328.63Z" transform="translate(-50.73 -135.82)"/><path class="cls-3" d="M383,328.63a1.33,1.33,0,1,1-1.33-1.33A1.33,1.33,0,0,1,383,328.63Z" transform="translate(-50.73 -135.82)"/><rect class="cls-6" x="322.42" y="191.33" width="2.97" height="2.97"/><rect class="cls-3" x="309.96" y="173.05" width="42.3" height="12.42" rx="1.65"/><rect class="cls-5" x="309.96" y="173.05" width="42.3" height="12.42" rx="1.65"/><rect class="cls-3" x="295.55" y="173.05" width="42.3" height="12.42" rx="1.65"/><circle class="cls-6" cx="331.06" cy="179.26" r="2.61"/><path class="cls-3" d="M383.12,315.07a1.33,1.33,0,1,1-1.32-1.33A1.32,1.32,0,0,1,383.12,315.07Z" transform="translate(-50.73 -135.82)"/><rect class="cls-6" x="322.5" y="177.77" width="2.97" height="2.97"/><rect class="cls-3" x="310.04" y="159.49" width="42.3" height="12.42" rx="1.65"/><rect class="cls-5" x="310.04" y="159.49" width="42.3" height="12.42" rx="1.65"/><rect class="cls-3" x="295.64" y="159.49" width="42.3" height="12.42" rx="1.65"/><circle class="cls-6" cx="331.15" cy="165.7" r="2.61"/><circle class="cls-3" cx="331.15" cy="165.7" r="1.33"/><rect class="cls-6" x="322.59" y="164.21" width="2.97" height="2.97"/><rect class="cls-3" x="310.13" y="145.93" width="42.3" height="12.42" rx="1.65"/><rect class="cls-5" x="310.13" y="145.93" width="42.3" height="12.42" rx="1.65"/><rect class="cls-3" x="295.72" y="145.93" width="42.3" height="12.42" rx="1.65"/><circle class="cls-6" cx="331.24" cy="152.13" r="2.61"/><circle class="cls-3" cx="331.24" cy="152.13" r="1.33"/><rect class="cls-6" x="322.67" y="150.65" width="2.97" height="2.97"/><rect class="cls-3" x="310.21" y="132.36" width="42.3" height="12.42" rx="1.65"/><rect class="cls-5" x="310.21" y="132.36" width="42.3" height="12.42" rx="1.65"/><rect class="cls-3" x="295.81" y="132.36" width="42.3" height="12.42" rx="1.65"/><path class="cls-6" d="M384.66,274.39a2.61,2.61,0,1,1-2.61-2.61A2.61,2.61,0,0,1,384.66,274.39Z" transform="translate(-50.73 -135.82)"/><circle class="cls-3" cx="331.32" cy="138.57" r="1.33"/><rect class="cls-6" x="322.76" y="137.09" width="2.97" height="2.97"/><rect class="cls-3" x="310.3" y="118.8" width="42.3" height="12.42" rx="1.65"/><rect class="cls-5" x="310.3" y="118.8" width="42.3" height="12.42" rx="1.65"/><rect class="cls-3" x="295.89" y="118.8" width="42.3" height="12.42" rx="1.65"/><path class="cls-6" d="M384.75,260.83a2.61,2.61,0,1,1-2.61-2.61A2.61,2.61,0,0,1,384.75,260.83Z" transform="translate(-50.73 -135.82)"/><circle class="cls-3" cx="331.41" cy="125.01" r="1.33"/><rect class="cls-6" x="322.85" y="123.53" width="2.97" height="2.97"/><rect class="cls-3" x="310.39" y="105.24" width="42.3" height="12.42" rx="1.65"/><rect class="cls-5" x="310.39" y="105.24" width="42.3" height="12.42" rx="1.65"/><rect class="cls-3" x="295.98" y="105.24" width="42.3" height="12.42" rx="1.65"/><path class="cls-6" d="M384.83,247.27a2.61,2.61,0,1,1-2.61-2.61A2.61,2.61,0,0,1,384.83,247.27Z" transform="translate(-50.73 -135.82)"/><path class="cls-3" d="M383.55,247.27a1.33,1.33,0,1,1-1.33-1.33A1.33,1.33,0,0,1,383.55,247.27Z" transform="translate(-50.73 -135.82)"/><rect class="cls-6" x="322.93" y="109.97" width="2.97" height="2.97"/><rect class="cls-3" x="310.47" y="91.68" width="42.3" height="12.42" rx="1.65"/><rect class="cls-5" x="310.47" y="91.68" width="42.3" height="12.42" rx="1.65"/><rect class="cls-3" x="296.06" y="91.68" width="42.3" height="12.42" rx="1.65"/><circle class="cls-6" cx="331.58" cy="97.89" r="2.61"/><path class="cls-3" d="M383.64,233.71a1.33,1.33,0,1,1-1.33-1.33A1.34,1.34,0,0,1,383.64,233.71Z" transform="translate(-50.73 -135.82)"/><rect class="cls-6" x="323.02" y="96.41" width="2.97" height="2.97"/><rect class="cls-3" x="310.56" y="78.12" width="42.3" height="12.42" rx="1.65"/><rect class="cls-5" x="310.56" y="78.12" width="42.3" height="12.42" rx="1.65"/><rect class="cls-3" x="296.15" y="78.12" width="42.3" height="12.42" rx="1.65"/><circle class="cls-6" cx="331.66" cy="84.33" r="2.61"/><path class="cls-3" d="M383.72,220.15a1.33,1.33,0,1,1-1.33-1.33A1.33,1.33,0,0,1,383.72,220.15Z" transform="translate(-50.73 -135.82)"/><rect class="cls-6" x="323.1" y="82.85" width="2.97" height="2.97"/><rect class="cls-3" x="310.64" y="64.56" width="42.3" height="12.42" rx="1.65"/><rect class="cls-5" x="310.64" y="64.56" width="42.3" height="12.42" rx="1.65"/><rect class="cls-3" x="296.23" y="64.56" width="42.3" height="12.42" rx="1.65"/><circle class="cls-6" cx="331.75" cy="70.77" r="2.61"/><circle class="cls-3" cx="331.75" cy="70.77" r="1.33"/><rect class="cls-6" x="323.19" y="69.29" width="2.97" height="2.97"/><rect class="cls-3" x="310.73" y="51" width="42.3" height="12.42" rx="1.65"/><rect class="cls-5" x="310.73" y="51" width="42.3" height="12.42" rx="1.65"/><rect class="cls-3" x="296.32" y="51" width="42.3" height="12.42" rx="1.65"/><circle class="cls-6" cx="331.83" cy="57.21" r="2.61"/><circle class="cls-3" cx="331.83" cy="57.21" r="1.33"/><rect class="cls-6" x="323.27" y="55.73" width="2.97" height="2.97"/><rect class="cls-3" x="310.81" y="37.44" width="42.3" height="12.42" rx="1.65"/><rect class="cls-5" x="310.81" y="37.44" width="42.3" height="12.42" rx="1.65"/><rect class="cls-3" x="296.41" y="37.44" width="42.3" height="12.42" rx="1.65"/><path class="cls-6" d="M385.26,179.47a2.61,2.61,0,1,1-2.61-2.61A2.61,2.61,0,0,1,385.26,179.47Z" transform="translate(-50.73 -135.82)"/><circle class="cls-3" cx="331.92" cy="43.65" r="1.33"/><rect class="cls-6" x="323.36" y="42.17" width="2.97" height="2.97"/><rect class="cls-3" x="310.9" y="23.88" width="42.3" height="12.42" rx="1.65"/><rect class="cls-5" x="310.9" y="23.88" width="42.3" height="12.42" rx="1.65"/><rect class="cls-3" x="296.49" y="23.88" width="42.3" height="12.42" rx="1.65"/><path class="cls-6" d="M385.35,165.91a2.61,2.61,0,1,1-2.61-2.61A2.61,2.61,0,0,1,385.35,165.91Z" transform="translate(-50.73 -135.82)"/><path class="cls-3" d="M384.06,165.91a1.33,1.33,0,1,1-1.32-1.33A1.32,1.32,0,0,1,384.06,165.91Z" transform="translate(-50.73 -135.82)"/><rect class="cls-6" x="323.44" y="28.61" width="2.97" height="2.97"/><rect class="cls-3" x="310.98" y="10.32" width="42.3" height="12.42" rx="1.65"/><rect class="cls-5" x="310.98" y="10.32" width="42.3" height="12.42" rx="1.65"/><rect class="cls-3" x="296.58" y="10.32" width="42.3" height="12.42" rx="1.65"/><path class="cls-6" d="M385.43,152.35a2.61,2.61,0,1,1-2.61-2.61A2.61,2.61,0,0,1,385.43,152.35Z" transform="translate(-50.73 -135.82)"/><path class="cls-3" d="M384.15,152.35a1.33,1.33,0,1,1-1.33-1.33A1.33,1.33,0,0,1,384.15,152.35Z" transform="translate(-50.73 -135.82)"/><rect class="cls-6" x="323.53" y="15.05" width="2.97" height="2.97"/></g><g id="Shadow"><ellipse id="_Path_" data-name="&lt;Path&gt;" class="cls-7" cx="199.27" cy="280.42" rx="193.89" ry="11.32"/></g><g id="Trash_bin" data-name="Trash bin"><path class="cls-8" d="M421.43,394.19a3,3,0,0,0-2.39-4.27,6.36,6.36,0,0,0-2-7,1.47,1.47,0,0,0-.87-.39,1.7,1.7,0,0,0-.94.41l-5.58,4a3.4,3.4,0,0,0-1.11,1.09c-1.14,2.21,3,5,1.28,6.86-.48.52-1.26.63-1.87,1-1.32.83-1.48,2.65-2.1,4.09s-2.78,2.55-3.6,1.22c.61-1.38-1.24-2.57-2.73-2.74s-3.06-.26-3.89-1.66c-2.12,1.85-6.88-3.33-6.77-5.41-1.75.13-2.94,1.76-3.32,3.4a25.05,25.05,0,0,0-.18,5.2c0,3.38-1.14,6.7-1.08,10.08,0,2.63,1.06,5.55,3.47,6.61a9.05,9.05,0,0,0,3.74.5l27.43-.18a4,4,0,0,0,1.92-.32c1.24-.64,1.5-2.27,1.62-3.66l1.47-17.88Z" transform="translate(-50.73 -135.82)"/><path class="cls-9" d="M421.43,394.19a3,3,0,0,0-2.39-4.27,6.36,6.36,0,0,0-2-7,1.47,1.47,0,0,0-.87-.39,1.7,1.7,0,0,0-.94.41l-5.58,4a3.4,3.4,0,0,0-1.11,1.09c-1.14,2.21,3,5,1.28,6.86-.48.52-1.26.63-1.87,1-1.32.83-1.48,2.65-2.1,4.09s-2.78,2.55-3.6,1.22c.61-1.38-1.24-2.57-2.73-2.74s-3.06-.26-3.89-1.66c-2.12,1.85-6.88-3.33-6.77-5.41-1.75.13-2.94,1.76-3.32,3.4a25.05,25.05,0,0,0-.18,5.2c0,3.38-1.14,6.7-1.08,10.08,0,2.63,1.06,5.55,3.47,6.61a9.05,9.05,0,0,0,3.74.5l27.43-.18a4,4,0,0,0,1.92-.32c1.24-.64,1.5-2.27,1.62-3.66l1.47-17.88Z" transform="translate(-50.73 -135.82)"/><path class="cls-8" d="M423,365.2H380.47l.35,4.3.25,3.07.65,8,.37,4.59.49,6.11.21,2.62.07.78.25,3.08.34,4.22.21,2.62.22,2.66.25,3.08.19,2.33.21,2.62.09,1.14h39.06l.09-1.14.21-2.61.19-2.35.25-3.08.22-2.65.21-2.62.34-4.23.25-3.07.06-.78.21-2.62.5-6.11.37-4.58.64-8,.25-3.07.35-4.3Zm2.56,2.82h0l-.82-.82h.89Zm-.21,2.61-.08,1-3.81,3.81-4.37-4.37L421,367.2H422Zm-1.1,13.62L421.49,387l-4.37-4.37,4.37-4.36,3,3Zm-40.5-2.92h0l3-3,4.37,4.36L386.8,387,384,384.25Zm36.3-4.44-4.37,4.37-4.37-4.37,4.37-4.37Zm-6.87-9.69h5l-2.5,2.5Zm1.08,15.47L409.93,387l-4.37-4.37,4.37-4.36Zm-14.51,5.78,4.37-4.36,4.36,4.36-4.36,4.37Zm3,5.78-4.37,4.37L394,394.24l4.37-4.37Zm7.2-4.36,4.36,4.37-4.36,4.36-4.37-4.37Zm-5.78-8.61-4.37-4.37,4.37-4.37,4.36,4.37Zm-1.42,1.41L398.37,387,394,382.67l4.37-4.36Zm-10.15-1.41-4.36-4.37,4.36-4.37,4.37,4.37Zm0,2.83,4.37,4.36-4.37,4.37-4.36-4.37ZM397,400l-4.37,4.36L388.22,400l4.36-4.37Zm1.41,1.41,4.37,4.37-4.36,4.37L394,405.8Zm1.42-1.41,4.37-4.37,4.36,4.37-4.36,4.36Zm10.15,1.41,4.36,4.37-4.36,4.37-4.37-4.37Zm5.78,5.78,4.37,4.37-2.83,2.83h-3.08l-2.83-2.83ZM411.34,400l4.37-4.37,4.37,4.37-4.37,4.36Zm0-11.57,4.37-4.36,4.37,4.36-4.37,4.37Zm3-17.34-4.36,4.37-4.37-4.37,3.91-3.91h.92Zm-10.14-1.41-2.5-2.5h5Zm-1.42,1.41-4.36,4.37L394,371.11l3.91-3.91h.92Zm-7.65-3.91-2.5,2.5-2.49-2.5Zm-7.82,0,3.91,3.91-4.37,4.37-3.8-3.81-.08-1,3.42-3.43Zm-3.74,0-.81.81h0l-.07-.81Zm-.27,7.55,2.14,2.14-1.82,1.82Zm1.19,14.65-.17-2.07h0l1.12,1.12-.95.95Zm.21,2.63,2.15-2.16,4.37,4.37-4.37,4.36L385,396.84Zm.65,8.08v-.19l.1.1-.09.09Zm.76,9.31-.55-6.7,1.29-1.29,4.37,4.37-4.37,4.36-.74-.74Zm.4,5-.08-1,.42-.42,1.42,1.42Zm1.76-2.83,4.36-4.37,4.37,4.37-2.83,2.83H391Zm8.73,2.83,1.42-1.42,1.42,1.42Zm5.66,0-2.83-2.83,4.37-4.37,4.36,4.37-2.82,2.83Zm5.9,0,1.42-1.42,1.42,1.42Zm13.32,0h-1.76l1.42-1.42.42.42Zm.41-5-.75.74-4.37-4.36,4.37-4.37,1.29,1.29Zm.77-9.51,0,.2-.09-.09.11-.11Zm.25-3.07-1.77,1.76-4.37-4.36,4.37-4.37,2.16,2.16Zm.6-7.43-1-1,1.13-1.12Zm1.19-14.67-.32,4-1.83-1.83,2.15-2.15Z" transform="translate(-50.73 -135.82)"/><g class="cls-10"><path class="cls-11" d="M423,365.2H380.47l.35,4.3.25,3.07.65,8,.37,4.59.49,6.11.21,2.62.07.78.25,3.08.34,4.22.21,2.62.22,2.66.25,3.08.19,2.33.21,2.62.09,1.14h39.06l.09-1.14.21-2.61.19-2.35.25-3.08.22-2.65.21-2.62.34-4.23.25-3.07.06-.78.21-2.62.5-6.11.37-4.58.64-8,.25-3.07.35-4.3Zm2.56,2.82h0l-.82-.82h.89Zm-.21,2.61-.08,1-3.81,3.81-4.37-4.37L421,367.2H422Zm-1.1,13.62L421.49,387l-4.37-4.37,4.37-4.36,3,3Zm-40.5-2.92h0l3-3,4.37,4.36L386.8,387,384,384.25Zm36.3-4.44-4.37,4.37-4.37-4.37,4.37-4.37Zm-6.87-9.69h5l-2.5,2.5Zm1.08,15.47L409.93,387l-4.37-4.37,4.37-4.36Zm-14.51,5.78,4.37-4.36,4.36,4.36-4.36,4.37Zm3,5.78-4.37,4.37L394,394.24l4.37-4.37Zm7.2-4.36,4.36,4.37-4.36,4.36-4.37-4.37Zm-5.78-8.61-4.37-4.37,4.37-4.37,4.36,4.37Zm-1.42,1.41L398.37,387,394,382.67l4.37-4.36Zm-10.15-1.41-4.36-4.37,4.36-4.37,4.37,4.37Zm0,2.83,4.37,4.36-4.37,4.37-4.36-4.37ZM397,400l-4.37,4.36L388.22,400l4.36-4.37Zm1.41,1.41,4.37,4.37-4.36,4.37L394,405.8Zm1.42-1.41,4.37-4.37,4.36,4.37-4.36,4.36Zm10.15,1.41,4.36,4.37-4.36,4.37-4.37-4.37Zm5.78,5.78,4.37,4.37-2.83,2.83h-3.08l-2.83-2.83ZM411.34,400l4.37-4.37,4.37,4.37-4.37,4.36Zm0-11.57,4.37-4.36,4.37,4.36-4.37,4.37Zm3-17.34-4.36,4.37-4.37-4.37,3.91-3.91h.92Zm-10.14-1.41-2.5-2.5h5Zm-1.42,1.41-4.36,4.37L394,371.11l3.91-3.91h.92Zm-7.65-3.91-2.5,2.5-2.49-2.5Zm-7.82,0,3.91,3.91-4.37,4.37-3.8-3.81-.08-1,3.42-3.43Zm-3.74,0-.81.81h0l-.07-.81Zm-.27,7.55,2.14,2.14-1.82,1.82Zm1.19,14.65-.17-2.07h0l1.12,1.12-.95.95Zm.21,2.63,2.15-2.16,4.37,4.37-4.37,4.36L385,396.84Zm.65,8.08v-.19l.1.1-.09.09Zm.76,9.31-.55-6.7,1.29-1.29,4.37,4.37-4.37,4.36-.74-.74Zm.4,5-.08-1,.42-.42,1.42,1.42Zm1.76-2.83,4.36-4.37,4.37,4.37-2.83,2.83H391Zm8.73,2.83,1.42-1.42,1.42,1.42Zm5.66,0-2.83-2.83,4.37-4.37,4.36,4.37-2.82,2.83Zm5.9,0,1.42-1.42,1.42,1.42Zm13.32,0h-1.76l1.42-1.42.42.42Zm.41-5-.75.74-4.37-4.36,4.37-4.37,1.29,1.29Zm.77-9.51,0,.2-.09-.09.11-.11Zm.25-3.07-1.77,1.76-4.37-4.36,4.37-4.37,2.16,2.16Zm.6-7.43-1-1,1.13-1.12Zm1.19-14.67-.32,4-1.83-1.83,2.15-2.15Z" transform="translate(-50.73 -135.82)"/></g><rect class="cls-8" x="377.75" y="363.41" width="52.8" height="5.57" rx="1.64" transform="translate(757.56 596.58) rotate(180)"/><rect class="cls-8" x="330.82" y="277.6" width="45.19" height="5.57" rx="1.64"/></g><g id="Table"><polygon class="cls-12" points="152.82 80.35 165.67 80.35 162.24 117.14 182.56 120.19 182.56 122.76 139.76 122.76 139.76 120.19 148.53 117.14 152.82 80.35"/><path class="cls-12" d="M253.43,239.52a4,4,0,0,1-4,4.47H171.61a5,5,0,0,1-4.87-4.47l-4.62-49.8a4.31,4.31,0,0,1,.1-1.45,4,4,0,0,1,3.93-3h77.79a5,5,0,0,1,4.87,4.47Z" transform="translate(-50.73 -135.82)"/><path class="cls-8" d="M171.61,241.48a2.47,2.47,0,0,1-2.37-2.19l-4.62-49.8a1.73,1.73,0,0,1,0-.61,1.46,1.46,0,0,1,1.5-1.13h77.79a2.49,2.49,0,0,1,2.38,2.2l4.62,49.8a1.65,1.65,0,0,1-.38,1.26,1.5,1.5,0,0,1-1.16.47Z" transform="translate(-50.73 -135.82)"/><path class="cls-13" d="M171.61,241.48a2.47,2.47,0,0,1-2.37-2.19l-4.62-49.8a1.73,1.73,0,0,1,0-.61,1.46,1.46,0,0,1,1.5-1.13h77.79a2.49,2.49,0,0,1,2.38,2.2l4.62,49.8a1.65,1.65,0,0,1-.38,1.26,1.5,1.5,0,0,1-1.16.47Z" transform="translate(-50.73 -135.82)"/><polygon class="cls-12" points="105.61 283.17 99.48 283.17 88.48 129.92 96.61 129.92 105.61 283.17"/><polygon class="cls-14" points="105.61 283.17 99.48 283.17 89.01 137.53 88.47 130.17 96.61 130.17 97.04 137.53 105.61 283.17"/><polygon class="cls-15" points="97.04 137.17 89.01 137.17 88.47 130.17 96.61 130.17 97.04 137.17"/><polygon class="cls-12" points="250.57 283.17 244.44 283.17 243.44 129.92 251.57 129.92 250.57 283.17"/><polygon class="cls-16" points="251.57 130.17 251.41 154.89 250.57 283.17 244.44 283.17 243.6 154.89 243.44 130.17 251.57 130.17"/><polygon class="cls-15" points="251.57 130.17 251.41 155.17 243.6 155.17 243.44 130.17 251.57 130.17"/><polygon class="cls-12" points="315.61 283.17 309.49 283.17 298.48 129.92 306.61 129.92 315.61 283.17"/><polygon class="cls-16" points="315.61 283.17 309.48 283.17 299.01 137.53 298.47 130.17 306.61 130.17 307.04 137.53 315.61 283.17"/><polygon class="cls-15" points="307.04 137.17 299.01 137.17 298.47 130.17 306.61 130.17 307.04 137.17"/><polygon class="cls-12" points="35.53 283.17 29.4 283.17 38.41 129.92 46.53 129.92 35.53 283.17"/><polygon class="cls-16" points="46.53 130.17 45.99 137.53 35.52 283.17 29.4 283.17 37.96 137.53 38.4 130.17 46.53 130.17"/><polygon class="cls-15" points="38.4 130.17 46.53 130.17 45.99 137.17 37.96 137.17 38.4 130.17"/><path class="cls-8" d="M32,126.08H313a0,0,0,0,1,0,0v5.51a2.16,2.16,0,0,1-2.16,2.16H34.13A2.16,2.16,0,0,1,32,131.59v-5.51A0,0,0,0,1,32,126.08Z"/><path class="cls-13" d="M32,126.08H313a0,0,0,0,1,0,0v5.51a2.16,2.16,0,0,1-2.16,2.16H34.13A2.16,2.16,0,0,1,32,131.59v-5.51A0,0,0,0,1,32,126.08Z"/><rect class="cls-15" x="31.97" y="126.08" width="281.08" height="3.84"/><path class="cls-8" d="M367.58,262.9H78.9a2.16,2.16,0,0,1-2.16-2.16h0a2.17,2.17,0,0,1,2.16-2.17H367.58a2.17,2.17,0,0,1,2.16,2.17h0A2.16,2.16,0,0,1,367.58,262.9Z" transform="translate(-50.73 -135.82)"/><path class="cls-13" d="M367.58,262.9H78.9a2.16,2.16,0,0,1-2.16-2.16h0a2.17,2.17,0,0,1,2.16-2.17H367.58a2.17,2.17,0,0,1,2.16,2.17h0A2.16,2.16,0,0,1,367.58,262.9Z" transform="translate(-50.73 -135.82)"/><polygon class="cls-12" points="165.54 122.76 166.53 119.03 207.08 119.03 225.76 120.89 226.47 122.76 165.54 122.76"/><polygon class="cls-17" points="207.08 119.03 207.08 122.76 165.54 122.76 166.53 119.03 207.08 119.03"/><polygon class="cls-12" points="66.82 80.35 79.67 80.35 66.24 117.14 86.56 120.19 86.56 122.76 43.77 122.76 43.77 120.19 52.53 117.14 66.82 80.35"/><path class="cls-12" d="M155.17,189.16a5.58,5.58,0,0,0-5.25-4.51H80.13a3.58,3.58,0,0,0-3.68,3,4.3,4.3,0,0,0,0,1.47l8.85,50.3A5.56,5.56,0,0,0,90.58,244h69.79a3.66,3.66,0,0,0,3.65-4.51Z" transform="translate(-50.73 -135.82)"/><path class="cls-18" d="M164,239.46a3.66,3.66,0,0,1-3.65,4.51H92.58a5.56,5.56,0,0,1-5.25-4.51l-8.85-50.3a4.3,4.3,0,0,1,0-1.47,3.58,3.58,0,0,1,3.68-3h67.79a5.58,5.58,0,0,1,5.25,4.51Z" transform="translate(-50.73 -135.82)"/><path class="cls-8" d="M92.37,241.45a2.78,2.78,0,0,1-2.57-2.22L81,188.93a1.88,1.88,0,0,1,0-.62,1.33,1.33,0,0,1,1.41-1.13h67.79a2.76,2.76,0,0,1,2.56,2.21l8.86,50.3a1.62,1.62,0,0,1-.28,1.28,1.4,1.4,0,0,1-1.11.48Z" transform="translate(-50.73 -135.82)"/><path class="cls-19" d="M92.37,241.45a2.78,2.78,0,0,1-2.57-2.22L81,188.93a1.88,1.88,0,0,1,0-.62,1.33,1.33,0,0,1,1.41-1.13h67.79a2.76,2.76,0,0,1,2.56,2.21l8.86,50.3a1.62,1.62,0,0,1-.28,1.28,1.4,1.4,0,0,1-1.11.48Z" transform="translate(-50.73 -135.82)"/><polygon class="cls-12" points="234.82 80.35 247.67 80.35 234.24 117.14 254.56 120.19 254.56 122.76 211.76 122.76 211.76 120.19 220.53 117.14 234.82 80.35"/><path class="cls-12" d="M330.58,189.72a4.68,4.68,0,0,0-4.64-4.47H256.15a4.23,4.23,0,0,0-4.08,3,4.37,4.37,0,0,0-.18,1.46l2.05,49.79a4.68,4.68,0,0,0,4.64,4.46h69.79a4.24,4.24,0,0,0,4.26-4.46Z" transform="translate(-50.73 -135.82)"/><path class="cls-14" d="M332.63,239.51a4.24,4.24,0,0,1-4.26,4.46H260.58a4.68,4.68,0,0,1-4.64-4.46l-2.05-49.79a4.37,4.37,0,0,1,.18-1.46,4.23,4.23,0,0,1,4.08-3h67.79a4.68,4.68,0,0,1,4.64,4.47Z" transform="translate(-50.73 -135.82)"/><path class="cls-8" d="M260.71,241.47a2.31,2.31,0,0,1-2.26-2.19l-2.05-49.79a2,2,0,0,1,.06-.62,1.57,1.57,0,0,1,1.56-1.12h67.79a2.34,2.34,0,0,1,2.27,2.2l2.05,49.79a1.69,1.69,0,0,1-.45,1.26,1.63,1.63,0,0,1-1.18.47Z" transform="translate(-50.73 -135.82)"/><path class="cls-19" d="M260.71,241.47a2.31,2.31,0,0,1-2.26-2.19l-2.05-49.79a2,2,0,0,1,.06-.62,1.57,1.57,0,0,1,1.56-1.12h67.79a2.34,2.34,0,0,1,2.27,2.2l2.05,49.79a1.69,1.69,0,0,1-.45,1.26,1.63,1.63,0,0,1-1.18.47Z" transform="translate(-50.73 -135.82)"/><path class="cls-17" d="M260.71,241.47a2.31,2.31,0,0,1-2.26-2.19l-2.05-49.79a2,2,0,0,1,.06-.62,1.57,1.57,0,0,1,1.56-1.12h67.79a2.34,2.34,0,0,1,2.27,2.2l2.05,49.79a1.69,1.69,0,0,1-.45,1.26,1.63,1.63,0,0,1-1.18.47Z" transform="translate(-50.73 -135.82)"/><polygon class="cls-11" points="271.72 57.23 221.95 57.23 221.91 56.3 271.68 56.3 271.72 57.23"/><polygon class="cls-11" points="271.84 60.07 227.56 60.07 227.52 59.15 271.8 59.15 271.84 60.07"/><polygon class="cls-11" points="271.97 62.92 243.98 62.92 243.94 61.99 271.93 61.99 271.97 62.92"/><polygon class="cls-11" points="272.09 65.76 235.75 65.76 235.71 64.83 272.05 64.83 272.09 65.76"/><polygon class="cls-11" points="272.22 68.6 248.11 68.6 248.07 67.67 272.18 67.67 272.22 68.6"/><polygon class="cls-11" points="272.6 77.27 222.84 77.27 222.79 76.34 272.56 76.34 272.6 77.27"/><polygon class="cls-11" points="272.73 80.11 228.45 80.11 228.41 79.19 272.69 79.19 272.73 80.11"/><polygon class="cls-11" points="272.85 82.96 244.87 82.96 244.82 82.03 272.81 82.03 272.85 82.96"/><polygon class="cls-11" points="272.98 85.8 236.64 85.8 236.6 84.87 272.94 84.87 272.98 85.8"/><polygon class="cls-11" points="273.11 88.64 249 88.64 248.96 87.71 273.06 87.71 273.11 88.64"/><polygon class="cls-8" points="164.41 87.45 121 87.45 118.45 59.05 161.87 59.05 164.41 87.45"/><polygon class="cls-8" points="164.41 87.45 121 87.45 118.45 59.05 161.87 59.05 164.41 87.45"/><polygon class="cls-12" points="162.7 86.03 122.46 86.03 120.51 64.38 160.75 64.38 162.7 86.03"/><polygon class="cls-11" points="153.93 68.54 124.17 68.54 124.08 67.61 153.85 67.61 153.93 68.54"/><polygon class="cls-11" points="138.71 71.39 124.42 71.39 124.34 70.46 138.62 70.46 138.71 71.39"/><polygon class="cls-11" points="142.67 74.25 124.68 74.25 124.59 73.32 142.58 73.32 142.67 74.25"/><polygon class="cls-11" points="131.28 77.1 124.94 77.1 124.85 76.17 131.19 76.17 131.28 77.1"/><polygon class="cls-11" points="129.3 79.95 125.19 79.95 125.11 79.02 129.21 79.02 129.3 79.95"/><polygon class="cls-8" points="193.09 101.65 149.67 101.65 147.12 73.25 190.54 73.25 193.09 101.65"/><polygon class="cls-8" points="193.09 101.65 149.67 101.65 147.12 73.25 190.54 73.25 193.09 101.65"/><polygon class="cls-12" points="191.38 100.23 151.13 100.23 149.19 78.58 189.43 78.58 191.38 100.23"/><polygon class="cls-11" points="182.61 82.74 152.84 82.74 152.76 81.81 182.53 81.81 182.61 82.74"/><polygon class="cls-11" points="167.38 85.6 153.1 85.6 153.02 84.67 167.3 84.67 167.38 85.6"/><polygon class="cls-11" points="171.34 88.45 153.35 88.45 153.27 87.52 171.26 87.52 171.34 88.45"/><polygon class="cls-11" points="159.95 91.3 153.61 91.3 153.53 90.37 159.87 90.37 159.95 91.3"/><polygon class="cls-11" points="157.97 94.16 153.87 94.16 153.78 93.22 157.89 93.22 157.97 94.16"/><polygon class="cls-13" points="108.61 100.23 40.96 100.23 33.05 56.1 100.7 56.1 108.61 100.23"/><polygon class="cls-13" points="59.62 98.5 42.01 98.5 35.5 62.16 53.1 62.16 59.62 98.5"/><polygon class="cls-13" points="61.2 98.5 106.88 98.5 100.36 62.16 54.68 62.16 61.2 98.5"/><g class="cls-20"><polygon points="51.34 65.88 38.57 65.88 38.41 64.96 51.17 64.96 51.34 65.88"/><polygon points="46.34 68.62 39.06 68.62 38.9 67.7 46.18 67.7 46.34 68.62"/><polygon points="49.54 71.37 39.55 71.37 39.39 70.45 49.38 70.45 49.54 71.37"/><polygon points="46.39 74.12 40.05 74.12 39.88 73.19 46.22 73.19 46.39 74.12"/><polygon points="44.65 76.86 40.54 76.86 40.37 75.94 44.48 75.94 44.65 76.86"/><polygon points="53.8 79.61 41.03 79.61 40.87 78.69 53.63 78.69 53.8 79.61"/><polygon points="48.81 82.36 41.52 82.36 41.36 81.43 48.64 81.43 48.81 82.36"/><polygon points="52.01 85.1 42.02 85.1 41.85 84.18 51.84 84.18 52.01 85.1"/><polygon points="48.85 87.85 42.51 87.85 42.34 86.92 48.68 86.92 48.85 87.85"/><polygon points="47.11 90.59 43 90.59 42.84 89.67 46.94 89.67 47.11 90.59"/><polygon points="49.83 93.34 43.49 93.34 43.33 92.42 49.67 92.42 49.83 93.34"/><polygon points="48.09 96.09 43.99 96.09 43.82 95.16 47.93 95.16 48.09 96.09"/></g><g class="cls-20"><polygon points="91.34 65.88 58.57 65.88 58.41 64.96 91.17 64.96 91.34 65.88"/><polygon points="86.34 68.62 59.06 68.62 58.9 67.7 86.18 67.7 86.34 68.62"/><polygon points="89.54 71.37 59.55 71.37 59.39 70.45 89.38 70.45 89.54 71.37"/><polygon points="86.39 74.12 60.05 74.12 59.88 73.19 86.22 73.19 86.39 74.12"/><polygon points="84.65 76.86 60.54 76.86 60.37 75.94 84.48 75.94 84.65 76.86"/><polygon points="93.8 79.61 61.03 79.61 60.87 78.69 93.63 78.69 93.8 79.61"/><polygon points="88.81 82.36 61.52 82.36 61.36 81.43 88.64 81.43 88.81 82.36"/><polygon points="92.01 85.1 62.02 85.1 61.85 84.18 91.84 84.18 92.01 85.1"/><polygon points="88.85 87.85 62.51 87.85 62.34 86.92 88.68 86.92 88.85 87.85"/><polygon points="87.11 90.59 63 90.59 62.84 89.67 86.94 89.67 87.11 90.59"/><polygon points="89.83 93.34 63.49 93.34 63.33 92.42 89.67 92.42 89.83 93.34"/><polygon points="88.09 96.09 63.99 96.09 63.82 95.16 87.93 95.16 88.09 96.09"/></g></g><g id="Character"><g id="_Group_" data-name="&lt;Group&gt;"><polygon class="cls-21" points="243.33 272.38 235.36 271.29 234.26 252.35 242.21 253.46 243.33 272.38"/><polygon class="cls-15" points="242.21 253.46 234.26 252.36 234.89 263.19 242.84 263.88 242.21 253.46"/><path class="cls-12" d="M285.49,406.15l9-.57a.57.57,0,0,1,.63.51h0l.88,7.1a1.4,1.4,0,0,1-1.31,1.5c-3.14.15-4.65.06-8.61.28-2.43.14-7.22.66-10.58.33s-2.94-3.63-1.49-3.79c3.43-.39,8-2.91,10.13-4.83A2.24,2.24,0,0,1,285.49,406.15Z" transform="translate(-50.73 -135.82)"/><path class="cls-8" d="M285.3,407.12h0c0-.14-.13-2.41-1-3.13a1.16,1.16,0,0,0-.9-.21.77.77,0,0,0-.68.6,2.91,2.91,0,0,0,.79,1.84,3.25,3.25,0,0,0-2.22-.41.74.74,0,0,0-.41.56,1,1,0,0,0,.3,1,2.13,2.13,0,0,0,1.52.3,9.31,9.31,0,0,0,2.1-.42.08.08,0,0,0,.07,0,.33.33,0,0,0,0-.06s.19,0,.2-.07l.17,0Zm-2.21-2.66c0-.11.07-.25.33-.3h.09a.51.51,0,0,1,.41.15c.51.42.65,1.69.68,2.45l-.16-.09A3.78,3.78,0,0,1,283.09,404.46Zm-1.64,2.65a.71.71,0,0,1-.18-.66.33.33,0,0,1,.2-.27c.51-.24,1.88.35,2.85.88C282.91,407.43,281.85,407.45,281.45,407.11Z" transform="translate(-50.73 -135.82)"/><path class="cls-12" d="M293.74,296.88l1.94-12.18L340.34,282s4.75,25.34,1.1,32.09c-6.51,12.05-41.61,6-51.89,7.15,6.14,25.11,5.54,74.18,5.54,74.18l-14.67,1.12s-11.28-52.87-13.57-78C265.31,301.62,279.36,302,293.74,296.88Z" transform="translate(-50.73 -135.82)"/><path class="cls-15" d="M293.74,296.88l1.94-12.18L340.34,282s4.75,25.34,1.1,32.09c-6.51,12.05-41.61,6-51.89,7.15,6.14,25.11,5.54,74.18,5.54,74.18l-14.67,1.12s-11.28-52.87-13.57-78C265.31,301.62,279.36,302,293.74,296.88Z" transform="translate(-50.73 -135.82)"/><path class="cls-22" d="M261.07,193.7c.2,1.88-.6,3.5-1.79,3.64s-2.33-1.29-2.54-3.16.6-3.51,1.79-3.64S260.86,191.82,261.07,193.7Z" transform="translate(-50.73 -135.82)"/><path class="cls-23" d="M261.1,203.37a12,12,0,0,0,.62,1.24,12.91,12.91,0,0,0,5.58,5.29,12.24,12.24,0,0,0,1.84.75,11.77,11.77,0,0,0,10.05-1.24,12,12,0,0,0,3.36-3.28c3.82-5.44,2.79-10.8,1.77-20A12.66,12.66,0,0,0,265,176.61C256.67,181.76,257.74,195.51,261.1,203.37Z" transform="translate(-50.73 -135.82)"/><path class="cls-15" d="M267.3,209.9a12.24,12.24,0,0,0,1.84.75,11.77,11.77,0,0,0,10.05-1.24,14,14,0,0,0-2.15-2.82A18.23,18.23,0,0,0,267.3,209.9Z" transform="translate(-50.73 -135.82)"/><path class="cls-23" d="M291.39,212.34c-1.57,5.94-11.76,10.71-11.76,10.71s-6.87,2.18-6.83-.44c3.08-2.79,3.7-5.48,3.06-8a11.73,11.73,0,0,0-2.19-4.15,24.76,24.76,0,0,0-1.7-2l6-16C280.14,199.06,285,210.66,291.39,212.34Z" transform="translate(-50.73 -135.82)"/><path class="cls-12" d="M262.39,183.24s-2.58,8.69,6.33,14.93c0,0,3.75,8,5.84,9s6.8.39,8.4,0,9.81-7.23,7.44-23.26-15.84-11-15.84-11Z" transform="translate(-50.73 -135.82)"/><path class="cls-23" d="M269.93,194a6,6,0,0,1-2.34,4.56c-1.72,1.1-3.38-1.31-3.58-4.09-.16-2.47.52-6.09,2.58-6S270.16,191.46,269.93,194Z" transform="translate(-50.73 -135.82)"/><path class="cls-12" d="M280.08,172.24s-9.89-2.71-17.61,1.38c0,0,1.52-1,1.06-2.26s-4,3.3-4,3.3,1.19-4.34.46-4.74-5.27,6.4-3,9.7c0,0-4.4-3-3.62-.66s.78,6.39,10.93,4.41S280.08,172.24,280.08,172.24Z" transform="translate(-50.73 -135.82)"/><line class="cls-22" x1="206.01" y1="58.36" x2="213.26" y2="55.34"/><path class="cls-8" d="M271.67,215.88s6.69-8.26,17.37-8.15l6.53,5.45Z" transform="translate(-50.73 -135.82)"/><path class="cls-16" d="M271.67,215.88s6.69-8.26,17.37-8.15l6.53,5.45Z" transform="translate(-50.73 -135.82)"/><path class="cls-23" d="M231.27,250.13,224,246.82s-6.06-1.13-8.57-.56-8,8.09-7.91,9,9.6,3.16,9.81,3.16,4.32-2.32,4.32-2.32l6.71,2.32Z" transform="translate(-50.73 -135.82)"/><polygon class="cls-8" points="246.08 260.33 228.45 261.49 226.94 253.94 246.31 253.04 246.08 260.33"/><polygon class="cls-24" points="246.08 260.33 228.45 261.49 226.94 253.94 246.31 253.04 246.08 260.33"/><polygon class="cls-21" points="224.95 272.31 216.93 272.9 211.91 254.61 219.92 254.03 224.95 272.31"/><path class="cls-8" d="M266.58,409l-.14,0h0c0-.12-.41-2.37-1.38-2.9a.9.9,0,0,0-.8,0,.7.7,0,0,0-.49.73,3,3,0,0,0,1.18,1.63,3.21,3.21,0,0,0-2.24.06.7.7,0,0,0-.28.63,1,1,0,0,0,.51.94,2.15,2.15,0,0,0,1.56,0,10,10,0,0,0,2-.84h.07s0-.05,0-.07A.11.11,0,0,0,266.58,409Zm-2.41-2.24c0-.11,0-.25.27-.35l.09,0a.55.55,0,0,1,.43.06c.58.31,1,1.53,1.17,2.26l-.18-.05C265.16,408.19,264.24,407.29,264.17,406.75Zm-1.05,2.94a.71.71,0,0,1-.31-.61.36.36,0,0,1,.13-.31c.46-.34,1.92,0,3,.27C264.61,409.7,263.59,409.94,263.12,409.69Z" transform="translate(-50.73 -135.82)"/><polygon class="cls-15" points="219.92 254.03 211.91 254.62 214.78 265.07 222.7 264.1 219.92 254.03"/><path class="cls-12" d="M259.92,399.6,274,395.45s-8.43-47.58-17-64.08c.64-.21,1.49-.48,2.54-.79,1.89-.57,4.4-1.28,7.35-2.1,20.52-5.69,62.11-16.36,62.11-16.36l-19-17.73s-75.68,11.54-77.25,31.48C232.06,335.46,259.92,399.6,259.92,399.6Z" transform="translate(-50.73 -135.82)"/><polygon class="cls-8" points="225.13 259.95 208.13 264.75 205.08 257.68 223.84 252.77 225.13 259.95"/><polygon class="cls-24" points="225.13 259.95 208.13 264.75 205.08 257.68 223.84 252.77 225.13 259.95"/><path class="cls-12" d="M266.88,407.9l8.68-2.42a.57.57,0,0,1,.72.36h0l2.35,6.76a1.43,1.43,0,0,1-1,1.75c-3.05.79-4.54,1-8.37,2.06-2.35.65-6.93,2.15-10.28,2.53s-3.63-2.94-2.25-3.39c3.28-1.1,7.21-4.52,8.91-6.84A2.22,2.22,0,0,1,266.88,407.9Z" transform="translate(-50.73 -135.82)"/><path class="cls-8" d="M261.29,224s12.65-14.16,29.54-12.7,33.81,14.5,42.22,35,11,51.5,11,51.5-27.34,7.82-55.12.69A295.54,295.54,0,0,0,261.29,224Z" transform="translate(-50.73 -135.82)"/><path class="cls-13" d="M261.29,224s12.65-14.16,29.54-12.7,33.81,14.5,42.22,35,11,51.5,11,51.5-27.34,7.82-55.12.69A295.54,295.54,0,0,0,261.29,224Z" transform="translate(-50.73 -135.82)"/><path class="cls-8" d="M261.29,224c-4.26,4.43-16.45,24.74-19.92,25.5s-8.52-2.37-12.48-1.18-8,4.8-7.1,7.1,10.21,8.46,21.74,8.8c9.87.28,30.67-24.29,30.67-24.29C274.2,230.38,261.29,224,261.29,224Z" transform="translate(-50.73 -135.82)"/><path class="cls-16" d="M261.29,224c-4.26,4.43-16.45,24.74-19.92,25.5s-8.52-2.37-12.48-1.18-8,4.8-7.1,7.1,10.21,8.46,21.74,8.8c9.87.28,30.67-24.29,30.67-24.29C274.2,230.38,261.29,224,261.29,224Z" transform="translate(-50.73 -135.82)"/><path class="cls-8" d="M343,304.56c-28.68,5.54-56.81-5.8-56.81-5.8s-.07-2.06-.43-5.27h0c-.13-1.22-.31-2.61-.53-4.11s-.46-2.81-.76-4.32a70.84,70.84,0,0,0-3.63-12.63c-1.59-3.95-2.83-7.2-3.78-9.87q-.21-.57-.39-1.11c-.41-1.17-.76-2.22-1.06-3.15-2-6.36-1.77-7.57-1.77-7.57,7.26,1,7.8-13.93-1.91-25.05a12.47,12.47,0,0,0-8-4.32s-1-1.58,9.25-7.35c5.52-3.11,11.7-.82,16.27-.82,7.34,0,8.44-1,8.44-1,12,0,26.48,15.83,35.83,34.66.47.94.93,1.89,1.37,2.85s.9,2,1.33,3a88.05,88.05,0,0,1,6.56,23c.1.81.2,1.59.28,2.35.13,1.08.24,2.11.35,3.1.13,1.22.24,2.38.34,3.47C345.77,303.8,343,304.56,343,304.56Z" transform="translate(-50.73 -135.82)"/><path class="cls-9" d="M277.1,262.55l11.81,9.65-4.4,12.85a70.84,70.84,0,0,0-3.63-12.63C279.29,268.47,278.05,265.22,277.1,262.55Z" transform="translate(-50.73 -135.82)"/><polygon class="cls-9" points="244.84 116.89 262.04 136.26 258.48 153 238.18 136.38 244.84 116.89"/><polygon class="cls-9" points="266.99 113.01 282.93 131.19 278.33 154.6 262.04 136.26 266.99 113.01"/><path class="cls-9" d="M343.32,278l-9.66-11,2.82-14.37a88.05,88.05,0,0,1,6.56,23C343.14,276.49,343.24,277.27,343.32,278Z" transform="translate(-50.73 -135.82)"/><g class="cls-25"><path class="cls-11" d="M335.15,249.65l-3,12.57L316.57,245.5l-5,22.11L294.26,247,287.84,269l-11.13-7.6c-.41-1.17-.76-2.22-1.06-3.15l11,7.54,6.7-23,17.13,20.43,4.93-21.87L331,258.13l2.74-11.33C334.25,247.74,334.71,248.69,335.15,249.65Z" transform="translate(-50.73 -135.82)"/></g><g class="cls-25"><path class="cls-11" d="M344,284.6l-7.38-8.6-5,24.56-16.41-18.05-3.58,14.63-20.4-17.54-5.44,13.88c-.13-1.22-.31-2.61-.53-4.11l5.14-13.13,20.06,17.25,3.7-15.1,16.29,17.91,5-24.7,8.19,9.53C343.8,282.35,343.91,283.51,344,284.6Z" transform="translate(-50.73 -135.82)"/></g></g><path class="cls-8" d="M266.26,317.44h89.92a0,0,0,0,1,0,0v6.69a5,5,0,0,1-5,5H271.26a5,5,0,0,1-5-5v-6.69A0,0,0,0,1,266.26,317.44Z" transform="translate(571.71 510.75) rotate(180)"/><path class="cls-15" d="M266.26,317.44h89.92a0,0,0,0,1,0,0v6.69a5,5,0,0,1-5,5H271.26a5,5,0,0,1-5-5v-6.69A0,0,0,0,1,266.26,317.44Z" transform="translate(571.71 510.75) rotate(180)"/><path class="cls-12" d="M353.25,395.68l-28.81-2.83v-40.5H313v40.48l-28.93,2.85a5.6,5.6,0,0,0-5.06,5.58v4.33h79.28v-4.33A5.6,5.6,0,0,0,353.25,395.68Z" transform="translate(-50.73 -135.82)"/><path class="cls-18" d="M353.25,395.68l-28.81-2.83v-40.5H313v40.48l-28.93,2.85a5.6,5.6,0,0,0-5.06,5.58v4.33h79.28v-4.33A5.6,5.6,0,0,0,353.25,395.68Z" transform="translate(-50.73 -135.82)"/><circle class="cls-12" cx="231.35" cy="275.14" r="7.47"/><circle class="cls-12" cx="304.53" cy="275.14" r="7.47"/><path class="cls-12" d="M260.32,189.17h15.35a0,0,0,0,1,0,0v31.93a4.13,4.13,0,0,1-4.13,4.13h-7.09a4.13,4.13,0,0,1-4.13-4.13V189.17A0,0,0,0,1,260.32,189.17Z"/><path class="cls-9" d="M260.32,189.17h15.35a0,0,0,0,1,0,0v31.93a4.13,4.13,0,0,1-4.13,4.13h-7.09a4.13,4.13,0,0,1-4.13-4.13V189.17A0,0,0,0,1,260.32,189.17Z"/><path class="cls-8" d="M301.64,325S316,279.31,318.4,212.65a14.82,14.82,0,0,1,14.82-14.24H359.8a14.83,14.83,0,0,1,14.84,14.75c.1,24.22-1.59,73.72-15.25,114Z" transform="translate(-50.73 -135.82)"/><path class="cls-15" d="M301.64,325S316,279.31,318.4,212.65a14.82,14.82,0,0,1,14.82-14.24H359.8a14.83,14.83,0,0,1,14.84,14.75c.1,24.22-1.59,73.72-15.25,114Z" transform="translate(-50.73 -135.82)"/><path class="cls-12" d="M310.71,324.42s13.65-48.56,15.91-110a13.66,13.66,0,0,1,13.67-13.14H364.8a13.68,13.68,0,0,1,13.69,13.61c.09,22.33-1.47,72.45-14.07,109.57Z" transform="translate(-50.73 -135.82)"/><path class="cls-9" d="M364.42,324.42H310.71s13.65-48.56,15.91-110a13.66,13.66,0,0,1,13.67-13.14H364.8a13.68,13.68,0,0,1,13.69,13.61C378.58,237.18,377,287.3,364.42,324.42Z" transform="translate(-50.73 -135.82)"/><path class="cls-12" d="M321.23,289.12s-29.14-5.89-57.27-3,13.24,39.61,13.24,39.61H283s-21.92-23.31-20.7-29.11,56.42,1.85,56.42,1.85Z" transform="translate(-50.73 -135.82)"/><path class="cls-9" d="M321.23,289.12s-29.14-5.89-57.27-3,13.24,39.61,13.24,39.61H283s-21.92-23.31-20.7-29.11,56.42,1.85,56.42,1.85Z" transform="translate(-50.73 -135.82)"/><path class="cls-15" d="M364.42,324.42H316.71s13.65-48.56,15.91-110a13.66,13.66,0,0,1,13.67-13.14H364.8a13.68,13.68,0,0,1,13.69,13.61C378.58,237.18,377,287.3,364.42,324.42Z" transform="translate(-50.73 -135.82)"/><rect class="cls-12" x="263.06" y="323.28" width="102.33" height="5.84" rx="2.01" transform="translate(577.71 516.6) rotate(-180)"/><rect class="cls-13" x="263.06" y="323.28" width="102.33" height="5.84" rx="2.01" transform="translate(577.71 516.6) rotate(-180)"/></g></svg>